<mxfile host="65bd71144e">
    <diagram id="kw6_cXqPrawGmoV3gr6W" name="Page-1">
        <mxGraphModel dx="598" dy="645" grid="1" gridSize="10" guides="1" tooltips="1" connect="1" arrows="1" fold="1" page="1" pageScale="1" pageWidth="850" pageHeight="1100" math="0" shadow="0">
            <root>
                <mxCell id="0"/>
                <mxCell id="1" parent="0"/>
                <mxCell id="5" value="Entry " style="swimlane;fontStyle=1;align=center;verticalAlign=top;childLayout=stackLayout;horizontal=1;startSize=26;horizontalStack=0;resizeParent=1;resizeParentMax=0;resizeLast=0;collapsible=1;marginBottom=0;" vertex="1" parent="1">
                    <mxGeometry x="260" y="140" width="160" height="114" as="geometry"/>
                </mxCell>
                <mxCell id="6" value="+ _prompt : string&#10;+ _reponse : string&#10;+ _date : string" style="text;strokeColor=none;fillColor=none;align=left;verticalAlign=top;spacingLeft=4;spacingRight=4;overflow=hidden;rotatable=0;points=[[0,0.5],[1,0.5]];portConstraint=eastwest;" vertex="1" parent="5">
                    <mxGeometry y="26" width="160" height="54" as="geometry"/>
                </mxCell>
                <mxCell id="7" value="" style="line;strokeWidth=1;fillColor=none;align=left;verticalAlign=middle;spacingTop=-1;spacingLeft=3;spacingRight=3;rotatable=0;labelPosition=right;points=[];portConstraint=eastwest;strokeColor=inherit;" vertex="1" parent="5">
                    <mxGeometry y="80" width="160" height="8" as="geometry"/>
                </mxCell>
                <mxCell id="8" value="+ Display(): void" style="text;strokeColor=none;fillColor=none;align=left;verticalAlign=top;spacingLeft=4;spacingRight=4;overflow=hidden;rotatable=0;points=[[0,0.5],[1,0.5]];portConstraint=eastwest;" vertex="1" parent="5">
                    <mxGeometry y="88" width="160" height="26" as="geometry"/>
                </mxCell>
                <mxCell id="10" value="Journal " style="swimlane;fontStyle=1;align=center;verticalAlign=top;childLayout=stackLayout;horizontal=1;startSize=26;horizontalStack=0;resizeParent=1;resizeParentMax=0;resizeLast=0;collapsible=1;marginBottom=0;" vertex="1" parent="1">
                    <mxGeometry x="60" y="140" width="160" height="160" as="geometry">
                        <mxRectangle x="290" y="240" width="90" height="30" as="alternateBounds"/>
                    </mxGeometry>
                </mxCell>
                <mxCell id="11" value="+ _entries : List&lt;Entry&gt; " style="text;strokeColor=none;fillColor=none;align=left;verticalAlign=top;spacingLeft=4;spacingRight=4;overflow=hidden;rotatable=0;points=[[0,0.5],[1,0.5]];portConstraint=eastwest;" vertex="1" parent="10">
                    <mxGeometry y="26" width="160" height="26" as="geometry"/>
                </mxCell>
                <mxCell id="12" value="" style="line;strokeWidth=1;fillColor=none;align=left;verticalAlign=middle;spacingTop=-1;spacingLeft=3;spacingRight=3;rotatable=0;labelPosition=right;points=[];portConstraint=eastwest;strokeColor=inherit;" vertex="1" parent="10">
                    <mxGeometry y="52" width="160" height="8" as="geometry"/>
                </mxCell>
                <mxCell id="13" value="+ Display() : void&#10;+ GetOptionSelection() : int&#10;~ Save() : void&#10;~ Load() : void&#10;~ Write() : void&#10;- ShowPrompt() : void" style="text;strokeColor=none;fillColor=none;align=left;verticalAlign=top;spacingLeft=4;spacingRight=4;overflow=hidden;rotatable=0;points=[[0,0.5],[1,0.5]];portConstraint=eastwest;" vertex="1" parent="10">
                    <mxGeometry y="60" width="160" height="100" as="geometry"/>
                </mxCell>
                <mxCell id="15" value="" style="endArrow=none;html=1;endFill=0;startArrow=diamondThin;startFill=1;edgeStyle=elbowEdgeStyle;elbow=vertical;entryX=0.5;entryY=0;entryDx=0;entryDy=0;exitX=0.5;exitY=0;exitDx=0;exitDy=0;endSize=6;strokeColor=default;startSize=13;" edge="1" parent="1" source="10" target="5">
                    <mxGeometry width="100" height="75" relative="1" as="geometry">
                        <mxPoint x="150" y="80" as="sourcePoint"/>
                        <mxPoint x="350" y="110" as="targetPoint"/>
                        <Array as="points">
                            <mxPoint x="250" y="60"/>
                        </Array>
                    </mxGeometry>
                </mxCell>
                <mxCell id="16" value="&lt;h1&gt;Class Explanation&lt;/h1&gt;&lt;ul style=&quot;margin-top: 0px; margin-bottom: 16px; padding-left: 2em; position: relative; color: rgb(230, 237, 243); font-family: -apple-system, BlinkMacSystemFont, &amp;quot;Segoe UI&amp;quot;, &amp;quot;Noto Sans&amp;quot;, Helvetica, Arial, sans-serif, &amp;quot;Apple Color Emoji&amp;quot;, &amp;quot;Segoe UI Emoji&amp;quot;; font-size: 16px; background-color: rgb(13, 17, 23);&quot; dir=&quot;auto&quot; class=&quot;code-line&quot; data-line=&quot;2&quot;&gt;&lt;li style=&quot;position: relative;&quot; dir=&quot;auto&quot; class=&quot;code-line&quot; data-line=&quot;2&quot;&gt;&lt;code style=&quot;font-family: ui-monospace, SFMono-Regular, &amp;quot;SF Mono&amp;quot;, Menlo, Consolas, &amp;quot;Liberation Mono&amp;quot;, monospace; padding: 0.2em 0.4em; border-radius: 6px; font-size: 13.6px; line-height: 1.357em; margin: 0px;&quot;&gt;Main&lt;/code&gt;&amp;nbsp;method in class&amp;nbsp;&lt;code style=&quot;font-family: ui-monospace, SFMono-Regular, &amp;quot;SF Mono&amp;quot;, Menlo, Consolas, &amp;quot;Liberation Mono&amp;quot;, monospace; padding: 0.2em 0.4em; border-radius: 6px; font-size: 13.6px; line-height: 1.357em; margin: 0px;&quot;&gt;Program&lt;/code&gt;&amp;nbsp;handles the&amp;nbsp;&lt;code style=&quot;font-family: ui-monospace, SFMono-Regular, &amp;quot;SF Mono&amp;quot;, Menlo, Consolas, &amp;quot;Liberation Mono&amp;quot;, monospace; padding: 0.2em 0.4em; border-radius: 6px; font-size: 13.6px; line-height: 1.357em; margin: 0px;&quot;&gt;Journal&lt;/code&gt;&amp;nbsp;class.&lt;/li&gt;&lt;li style=&quot;margin-top: 0.25em; position: relative;&quot; dir=&quot;auto&quot; class=&quot;code-line&quot; data-line=&quot;3&quot;&gt;Entries are not visible at that level, since they're are all internaly handled inside every journal.&lt;/li&gt;&lt;li style=&quot;margin-top: 0.25em; position: relative;&quot; dir=&quot;auto&quot; class=&quot;code-line&quot; data-line=&quot;4&quot;&gt;Every journal has a list of entries, that are created, displayed, loaded and saved by the&amp;nbsp;&lt;code style=&quot;font-family: ui-monospace, SFMono-Regular, &amp;quot;SF Mono&amp;quot;, Menlo, Consolas, &amp;quot;Liberation Mono&amp;quot;, monospace; padding: 0.2em 0.4em; border-radius: 6px; font-size: 13.6px; line-height: 1.357em; margin: 0px;&quot;&gt;Journal&lt;/code&gt;&amp;nbsp;class.&lt;/li&gt;&lt;li style=&quot;margin-top: 0.25em; position: relative;&quot; dir=&quot;auto&quot; class=&quot;code-line&quot; data-line=&quot;5&quot;&gt;The&amp;nbsp;&lt;code style=&quot;font-family: ui-monospace, SFMono-Regular, &amp;quot;SF Mono&amp;quot;, Menlo, Consolas, &amp;quot;Liberation Mono&amp;quot;, monospace; padding: 0.2em 0.4em; border-radius: 6px; font-size: 13.6px; line-height: 1.357em; margin: 0px;&quot;&gt;Journal&lt;/code&gt;&amp;nbsp;class contains the necessary methods for the functioning of every journal object.&lt;/li&gt;&lt;/ul&gt;&lt;p&gt;.&lt;/p&gt;" style="text;html=1;strokeColor=none;fillColor=none;spacing=5;spacingTop=-20;whiteSpace=wrap;overflow=hidden;rounded=0;" vertex="1" parent="1">
                    <mxGeometry x="460" y="67" width="340" height="323" as="geometry"/>
                </mxCell>
                <mxCell id="17" value="&lt;h1&gt;Extra Requirements&lt;/h1&gt;&lt;ul style=&quot;margin-top: 0px; margin-bottom: 16px; padding-left: 2em; position: relative; color: rgb(230, 237, 243); font-family: -apple-system, BlinkMacSystemFont, &amp;quot;Segoe UI&amp;quot;, &amp;quot;Noto Sans&amp;quot;, Helvetica, Arial, sans-serif, &amp;quot;Apple Color Emoji&amp;quot;, &amp;quot;Segoe UI Emoji&amp;quot;; font-size: 16px; background-color: rgb(13, 17, 23);&quot; dir=&quot;auto&quot; class=&quot;code-line&quot; data-line=&quot;32&quot;&gt;&lt;li style=&quot;position: relative;&quot; dir=&quot;auto&quot; class=&quot;code-line&quot; data-line=&quot;32&quot;&gt;Read all files stored in the journal folder location. The storage method uses JSON serialization.&lt;/li&gt;&lt;/ul&gt;" style="text;html=1;strokeColor=none;fillColor=none;spacing=5;spacingTop=-20;whiteSpace=wrap;overflow=hidden;rounded=0;" vertex="1" parent="1">
                    <mxGeometry x="45" y="330" width="395" height="120" as="geometry"/>
                </mxCell>
            </root>
        </mxGraphModel>
    </diagram>
</mxfile>